<?xml version="1.0" standalone="no"?>
<!DOCTYPE svg PUBLIC "-//W3C//DTD SVG 20010904//EN"
 "http://www.w3.org/TR/2001/REC-SVG-20010904/DTD/svg10.dtd">
<svg version="1.0" xmlns="http://www.w3.org/2000/svg"
 width="176.000000pt" height="176.000000pt" viewBox="0 0 176.000000 176.000000"
 preserveAspectRatio="xMidYMid meet">

<g transform="translate(0.000000,176.000000) scale(0.100000,-0.100000)"
fill="#000000" stroke="none">
<path d="M717 1744 c-168 -30 -331 -117 -457 -244 -345 -345 -345 -895 0
-1240 345 -345 895 -345 1240 0 345 345 345 895 0 1240 -206 207 -494 296
-783 244z m193 -177 c0 -18 -7 -43 -17 -56 -15 -23 -17 -23 -30 -6 -19 27 -16
58 8 83 25 28 39 20 39 -21z m170 8 c0 -16 -31 -63 -45 -69 -47 -18 -58 4 -24
48 18 22 69 38 69 21z m-254 -40 c16 -24 22 -70 11 -81 -9 -10 -45 15 -52 35
-7 23 4 71 16 71 5 0 16 -11 25 -25z m-78 -28 c30 -28 29 -57 -2 -57 -28 0
-56 33 -56 67 0 26 21 22 58 -10z m213 -26 c-28 -53 -71 -70 -71 -28 0 38 29
64 73 66 16 1 16 -2 -2 -38z m-289 -3 c24 -20 30 -48 11 -55 -17 -7 -53 29
-53 53 0 17 21 18 42 2z m368 -30 c22 -36 24 -47 11 -67 -11 -17 -47 1 -56 28
-7 23 4 71 16 71 5 0 18 -15 29 -32z m130 6 c0 -21 -54 -74 -75 -74 -23 0 -12
48 17 73 25 21 58 22 58 1z m-510 -99 c0 -32 -17 -41 -41 -19 -19 17 -26 73
-12 88 12 12 53 -42 53 -69z m90 66 c0 -16 -41 -61 -56 -61 -25 0 -12 43 16
57 30 15 40 16 40 4z m27 -13 c-3 -8 -6 -5 -6 6 -1 11 2 17 5 13 3 -3 4 -12 1
-19z m81 -6 c11 -14 12 -14 13 4 0 16 2 15 10 -5 5 -13 9 -51 8 -85 -1 -33 1
-87 6 -119 l8 -59 19 30 c10 17 30 37 43 46 13 8 26 30 30 48 10 43 33 88 46
88 6 0 1 -12 -10 -26 -21 -27 -29 -94 -11 -94 5 0 7 6 4 14 -6 17 29 56 51 56
23 0 18 -28 -11 -55 l-26 -24 33 9 c24 7 30 7 22 -1 -6 -6 -33 -14 -60 -16
-26 -3 -54 -11 -62 -17 -18 -14 -50 -85 -51 -110 0 -17 4 -16 33 11 17 18 46
36 62 42 25 9 27 8 11 -2 -43 -28 -78 -61 -92 -88 l-14 -29 47 30 c26 17 68
33 95 36 27 4 66 18 86 31 l37 24 -33 -31 c-19 -17 -32 -33 -30 -34 1 -1 18
-8 36 -16 18 -7 39 -22 47 -34 23 -31 18 -42 -6 -13 -24 31 -88 51 -135 42
-39 -7 -89 -46 -109 -86 -31 -59 -11 -259 34 -348 12 -22 21 -43 21 -46 0 -3
-51 -5 -113 -5 l-113 0 24 73 c18 53 25 95 26 157 1 103 -14 138 -82 181 -42
27 -54 30 -107 26 -33 -2 -54 -2 -47 1 8 2 4 10 -12 23 -29 23 -41 59 -19 59
28 0 53 -21 53 -45 0 -23 4 -25 46 -25 25 0 54 -5 65 -10 10 -6 19 -7 19 -3 0
12 -65 62 -103 79 l-32 15 30 -6 c37 -8 88 -39 138 -84 l38 -34 -6 29 c-18 80
-40 128 -79 171 -36 40 -46 46 -58 35 -12 -10 -20 -8 -42 9 -14 11 -26 27 -26
35 0 21 38 17 52 -6 7 -11 18 -20 25 -20 20 0 90 -67 103 -100 7 -17 15 -29
17 -26 7 7 -35 84 -67 120 -17 19 -49 44 -73 55 -23 12 -35 21 -27 21 8 0 30
-9 47 -20 l33 -19 -6 43 c-4 27 -2 46 5 50 7 5 11 -4 11 -27 0 -25 13 -52 49
-101 29 -39 54 -87 62 -116 7 -28 16 -50 20 -50 11 0 22 125 15 161 -3 16 -24
51 -46 78 -45 54 -55 78 -12 30 31 -35 52 -32 52 7 0 17 -5 24 -19 24 -21 0
-51 35 -51 58 0 17 40 6 58 -16z m-309 -8 c54 -45 30 -88 -27 -48 -14 10 -22
25 -22 45 0 36 10 36 49 3z m391 -11 c23 -13 50 -50 50 -68 0 -14 -53 -2 -70
15 -18 18 -29 70 -14 70 3 0 19 -7 34 -17z m343 -33 c-7 -27 -49 -70 -68 -70
-16 0 -21 36 -7 56 10 15 44 33 64 34 11 0 15 -6 11 -20z m-123 -10 c29 -29
25 -40 -15 -40 -42 0 -87 36 -64 51 24 15 58 10 79 -11z m-574 -57 c-9 -35
-32 -53 -68 -53 l-29 0 17 29 c17 29 46 49 73 50 9 1 11 -7 7 -26z m364 -3
c11 -11 20 -27 20 -35 0 -21 -26 -19 -50 5 -24 24 -26 50 -5 50 8 0 24 -9 35
-20z m-92 -38 c18 -23 15 -42 -7 -42 -21 0 -51 35 -51 58 0 17 40 6 58 -16z
m374 -9 c31 -37 31 -43 -5 -43 -36 0 -91 35 -82 51 10 16 71 10 87 -8z m-592
-83 c0 -38 -12 -44 -38 -19 -22 20 -30 77 -15 93 13 13 53 -44 53 -74z m510
60 c0 -6 -11 -22 -25 -35 -13 -14 -29 -25 -35 -25 -16 0 -12 31 7 52 17 19 53
25 53 8z m-626 -35 c28 -25 35 -65 12 -65 -25 0 -66 41 -66 66 0 31 20 31 54
-1z m206 -11 c0 -11 -23 -49 -34 -56 -22 -15 -37 -8 -34 14 3 25 68 65 68 42z
m523 -14 c-5 -20 -39 -50 -55 -50 -16 0 -8 49 10 59 30 18 51 13 45 -9z m45
-60 c-18 -53 -78 -81 -78 -37 0 32 37 64 77 66 9 1 9 -7 1 -29z m-759 -26 c38
-31 40 -54 6 -54 -30 0 -65 32 -65 60 0 27 22 25 59 -6z m-71 -16 c7 -7 12
-20 12 -30 0 -30 -38 -22 -55 12 -15 29 -15 30 8 30 13 0 28 -5 35 -12z m722
-63 c0 -25 -46 -65 -75 -65 -32 0 -32 11 1 49 28 33 74 43 74 16z m150 -12
l22 -28 -22 -3 c-31 -5 -66 5 -84 24 -22 21 -11 34 29 34 25 0 39 -7 55 -27z
m-790 -3 c0 -30 -36 -60 -70 -60 -27 0 -30 2 -20 19 13 25 59 61 76 61 8 0 14
-9 14 -20z m56 -67 c-9 -19 -22 -33 -29 -30 -20 6 -21 76 -1 98 18 20 18 20
32 -7 12 -24 12 -31 -2 -61z m66 70 c21 -19 24 -62 4 -88 -13 -19 -15 -18 -31
17 -11 22 -15 46 -11 62 7 30 13 32 38 9z m578 -82 c0 -27 -24 -71 -39 -71 -5
0 -12 16 -15 36 -9 45 17 93 40 73 8 -6 14 -23 14 -38z m-325 -406 c35 -14 54
-39 40 -53 -3 -4 -11 1 -16 10 -14 26 -48 41 -104 49 l-50 6 48 2 c26 0 63 -6
82 -14z m-160 -20 c-27 -26 -33 -66 -12 -83 7 -6 50 -20 96 -31 96 -22 131
-48 131 -97 0 -38 -32 -79 -70 -89 -22 -6 -21 -4 7 14 18 11 35 31 39 45 13
52 -32 87 -127 101 -26 4 -61 15 -78 26 -26 16 -31 25 -31 58 0 31 6 44 26 60
37 29 48 26 19 -4z m285 -140 c0 -140 -2 -165 -15 -165 -13 0 -15 25 -15 165
0 140 2 165 15 165 13 0 15 -25 15 -165z m-305 -92 c0 -20 9 -33 34 -50 39
-26 18 -32 -29 -8 -30 15 -48 54 -35 74 12 21 31 11 30 -16z m118 -80 c-7 -2
-21 -2 -30 0 -10 3 -4 5 12 5 17 0 24 -2 18 -5z"/>
</g>
</svg>
